# Blender 4.0.2
# www.blender.org
mtllib Shade.mtl
o Cube
v 1.000000 4.606257 -1.000000
v 1.000000 2.606257 -0.590075
v 1.000000 4.606257 1.000000
v 1.000000 2.606257 0.590075
v -1.000000 4.606257 -1.000000
v -1.000000 2.730055 -0.752406
v -1.000000 4.606257 1.000000
v -1.000000 2.730055 0.752406
v -1.000000 2.730055 0.000000
v -1.000000 3.482460 0.752406
v -1.000000 3.482460 -0.752406
v -1.000000 4.606257 0.000000
v -1.000000 3.482460 0.000000
v -2.281074 2.187025 -0.461174
v -2.281074 2.187025 0.461174
v -2.281074 2.041409 0.000000
v -2.281074 2.648199 0.461174
v -2.281074 2.648199 -0.461174
v -2.281074 2.793815 0.000000
v -2.380940 1.876777 -1.124768
v -2.423885 1.852909 1.116538
v -2.344033 1.515769 -0.006714
v -2.608773 2.958448 1.124768
v -2.565829 2.982315 -1.116538
v -2.645680 3.319455 0.006714
v -3.007791 1.537461 -1.626971
v -2.900861 1.430596 1.498027
v -2.740064 1.039555 -0.087003
v -3.579442 2.838273 1.569384
v -3.686372 2.945137 -1.555613
v -3.847169 3.336179 0.029417
v -7.144655 -2.141270 -1.598486
v -7.204588 -2.174579 1.529414
v -7.093150 -2.645082 -0.038163
v -7.462613 -0.631721 1.540900
v -7.402680 -0.598413 -1.587000
v -7.514119 -0.127911 -0.019424
v -4.415711 2.799089 0.021844
v -4.181508 2.300267 1.564968
v -3.568132 0.871632 1.502893
v -3.649191 0.967092 -1.622554
v -4.262567 2.395727 -1.560480
v -3.414989 0.468270 -0.079430
v -3.291714 1.724930 -1.648398
v -3.672163 2.514148 -1.923378
v -3.651318 1.405151 -1.645922
v -3.995209 2.206120 -1.926106
v -3.341787 -0.193909 -2.219563
v -3.722235 -0.092281 -2.665942
v -3.701390 -0.513688 -2.217087
v -4.045281 -0.400310 -2.668670
v -3.346015 -0.266747 -2.235258
v -3.536769 -0.456737 -2.766144
v -3.638056 -0.646403 -2.188860
v -3.794732 -0.817959 -2.719015
v -1.270708 0.168074 -2.257757
v -1.238562 0.034780 -2.765458
v -1.155608 -0.263082 -2.228492
v -1.114125 -0.401620 -2.788964
v -0.868644 0.422114 -2.139780
v -0.821399 0.226209 -2.885954
v -0.699480 -0.211562 -2.096768
v -0.638512 -0.352401 -2.795809
v 0.686305 0.834468 -2.140715
v 0.733550 0.638563 -2.886889
v 0.855469 0.200792 -2.097703
v 0.916436 0.059953 -2.796744
vn -0.0000 1.0000 -0.0000
vn 0.0111 -0.1672 0.9859
vn -1.0000 -0.0000 -0.0000
vn -0.0618 -0.9981 -0.0000
vn 1.0000 -0.0000 -0.0000
vn 0.0111 -0.1672 -0.9859
vn -0.5168 0.8500 0.1020
vn 0.4207 -0.9007 -0.1081
vn 0.9881 -0.1384 -0.0675
vn 0.8341 0.5380 -0.1219
vn -0.2217 -0.0000 0.9751
vn 0.4207 -0.9007 0.1081
vn -0.5168 0.8500 -0.1020
vn -0.2217 -0.0000 -0.9751
vn 0.6924 -0.6596 -0.2925
vn 0.0375 0.9659 -0.2564
vn 0.9821 -0.1608 0.0985
vn 0.8190 0.5517 0.1579
vn 0.9357 0.1087 0.3357
vn 0.9543 0.1141 -0.2762
vn 0.0173 -0.0197 0.9997
vn -0.6495 0.7040 0.2872
vn 0.7353 -0.6353 0.2361
vn 0.0203 0.9520 0.3053
vn 0.4548 0.1284 0.8813
vn 0.4367 0.1780 -0.8818
vn -0.9861 -0.1648 -0.0206
vn -0.0176 0.0196 -0.9997
vn -0.6649 0.7035 -0.2510
vn 0.6252 -0.7240 -0.2915
vn 0.6239 -0.7380 0.2571
vn 0.6254 -0.7400 0.2476
vn 0.6165 -0.7143 -0.3313
vn -0.6664 0.7049 -0.2429
vn -0.5154 0.5464 -0.6602
vn -0.6407 0.6939 0.3286
vn 0.0294 -0.0336 0.9990
vn 0.2570 -0.2819 0.9244
vn -0.6565 -0.3474 -0.6695
vn 0.0403 -0.0530 -0.9978
vn 0.7002 0.2765 -0.6582
vn 0.0073 0.0629 0.9980
vn 0.7719 0.1614 -0.6149
vn -0.8064 -0.1484 0.5725
vn -0.2494 0.2698 -0.9301
vn 0.1533 -0.9547 0.2552
vn 0.7567 0.4414 -0.4822
vn -0.7790 -0.4614 0.4246
vn -0.1779 0.0894 -0.9800
vn -0.2765 -0.0086 0.9610
vn -0.0088 -0.0281 -0.9996
vn -0.0032 0.0936 0.9956
vn -0.2012 0.9436 -0.2630
vn -0.2476 0.9331 -0.2607
vn -0.4628 0.8497 -0.2524
vn 0.0754 -0.9722 0.2218
vn -0.1142 -0.0995 -0.9885
vn 0.9601 0.2796 0.0068
vn 0.2506 -0.9446 0.2122
vn 0.0372 -0.1424 -0.9891
vn -0.0162 0.0634 0.9979
vt 0.625000 0.500000
vt 0.875000 0.500000
vt 0.875000 0.625000
vt 0.875000 0.750000
vt 0.625000 0.750000
vt 0.375000 0.750000
vt 0.625000 1.000000
vt 0.500000 1.000000
vt 0.375000 1.000000
vt 0.500000 0.125000
vt 0.625000 0.125000
vt 0.625000 0.250000
vt 0.500000 0.250000
vt 0.125000 0.500000
vt 0.375000 0.500000
vt 0.125000 0.750000
vt 0.125000 0.625000
vt 0.375000 0.250000
vt 0.500000 0.000000
vt 0.625000 0.000000
vt 0.500000 0.125000
vt 0.375000 0.125000
vt 0.375000 0.000000
vt 0.375000 0.250000
s 0
usemtl Material
f 1/1/1 5/2/1 12/3/1 7/4/1 3/5/1
f 4/6/2 3/5/2 7/7/2 10/8/2 8/9/2
f 13/10/3 12/11/3 5/12/3 11/13/3
f 6/14/4 2/15/4 4/6/4 8/16/4 9/17/4
f 2/15/5 1/1/5 3/5/5 4/6/5
f 6/18/6 11/13/6 5/12/6 1/1/6 2/15/6
f 10/19/7 13/10/7 19/10/7 17/19/7
f 6/14/8 9/17/8 16/17/8 14/14/8
f 10/19/3 7/20/3 12/11/3 13/10/3
f 14/14/9 16/17/9 22/17/9 20/14/9
f 19/10/10 18/13/10 24/13/10 25/10/10
f 8/9/11 10/8/11 17/8/11 15/9/11
f 9/17/12 8/16/12 15/16/12 16/17/12
f 13/10/13 11/13/13 18/13/13 19/10/13
f 11/13/14 6/18/14 14/18/14 18/13/14
f 20/14/15 22/17/15 28/17/15 26/14/15
f 25/10/16 24/13/16 30/13/16 31/10/16
f 16/17/17 15/16/17 21/16/17 22/17/17
f 17/19/18 19/10/18 25/10/18 23/19/18
f 15/9/19 17/8/19 23/8/19 21/9/19
f 18/13/20 14/18/20 20/18/20 24/13/20
f 40/9/21 39/8/21 35/8/21 33/9/21
f 39/19/22 38/21/22 37/10/22 35/19/22
f 22/17/23 21/16/23 27/16/23 28/17/23
f 23/19/24 25/10/24 31/10/24 29/19/24
f 21/9/25 23/8/25 29/8/25 27/9/25
f 24/13/26 20/18/26 26/18/26 30/13/26
f 34/22/27 37/10/27 36/13/27 32/18/27
f 33/23/27 35/19/27 37/10/27 34/22/27
f 42/13/28 41/24/28 32/18/28 36/13/28
f 38/21/29 42/13/29 36/13/29 37/10/29
f 41/14/30 43/17/30 34/17/30 32/14/30
f 43/17/31 40/16/31 33/16/31 34/17/31
f 28/17/32 27/16/32 40/16/32 43/17/32
f 26/14/33 28/17/33 43/17/33 41/14/33
f 31/10/34 30/13/34 42/13/34 38/21/34
f 42/13/35 30/13/35 45/13/35 47/13/35
f 29/19/36 31/10/36 38/21/36 39/19/36
f 27/9/37 29/8/37 39/8/37 40/9/37
f 44/14/38 46/14/38 50/14/38 48/14/38
f 41/24/39 42/13/39 47/13/39 46/24/39
f 26/14/40 41/14/40 46/14/40 44/14/40
f 30/13/41 26/18/41 44/18/41 45/13/41
f 48/14/42 50/14/42 54/14/42 52/14/42
f 45/13/43 44/18/43 48/18/43 49/13/43
f 46/24/44 47/13/44 51/13/44 50/24/44
f 47/13/45 45/13/45 49/13/45 51/13/45
f 54/24/46 55/13/46 59/13/46 58/24/46
f 49/13/47 48/18/47 52/18/47 53/13/47
f 50/24/48 51/13/48 55/13/48 54/24/48
f 51/13/49 49/13/49 53/13/49 55/13/49
f 56/14/50 58/14/50 62/14/50 60/14/50
f 55/13/51 53/13/51 57/13/51 59/13/51
f 52/14/52 54/14/52 58/14/52 56/14/52
f 53/13/53 52/18/53 56/18/53 57/13/53
f 61/13/54 60/18/54 64/18/54 65/13/54
f 57/13/55 56/18/55 60/18/55 61/13/55
f 58/24/56 59/13/56 63/13/56 62/24/56
f 59/13/57 57/13/57 61/13/57 63/13/57
f 65/13/58 64/18/58 66/24/58 67/13/58
f 62/24/59 63/13/59 67/13/59 66/24/59
f 63/13/60 61/13/60 65/13/60 67/13/60
f 60/14/61 62/14/61 66/14/61 64/14/61
